<svg xmlns="http://www.w3.org/2000/svg" width="985" height="388" viewBox="0 0 985 388" role="img" aria-label="Portfolio overview: backend, data, infrastructure and current learning">
<title>Portfolio overview · César Díaz</title>
<style>
text{font-family:'Space Grotesk','Segoe UI',Ubuntu,'Helvetica Neue',sans-serif;fill:#e5e7eb}
.label{font-family:'JetBrains Mono','Cascadia Code',Consolas,'DejaVu Sans Mono',monospace;font-size:11.5px;font-weight:700;letter-spacing:1.8px;fill:#6b7280}
.idx{font-family:'JetBrains Mono','Cascadia Code',Consolas,'DejaVu Sans Mono',monospace;font-size:11.5px;font-weight:700;fill:#34d399}
.title{font-size:14px;font-weight:700}
.sub{font-family:'JetBrains Mono','Cascadia Code',Consolas,'DejaVu Sans Mono',monospace;font-size:10.5px;fill:#6b7280}
.copy{font-size:12px;fill:#6b7280}
.metric{font-size:25px;font-weight:700}
.micro{font-family:'JetBrains Mono','Cascadia Code',Consolas,'DejaVu Sans Mono',monospace;font-size:9.5px;letter-spacing:1px;fill:#6b7280}
.flow{font-family:'JetBrains Mono','Cascadia Code',Consolas,'DejaVu Sans Mono',monospace;font-size:10px;font-weight:700}
.arrow{font-family:'JetBrains Mono','Cascadia Code',Consolas,'DejaVu Sans Mono',monospace;font-size:14px;fill:#374151}
.panel{opacity:0;animation:up .6s ease-out forwards}
@keyframes up{from{opacity:0;transform:translateY(8px)}to{opacity:1;transform:none}}
.pulse{animation:pu 2s ease-out infinite;transform-origin:center;transform-box:fill-box}
@keyframes pu{0%,100%{opacity:.55;transform:scale(.8)}50%{opacity:1;transform:scale(1.25)}}
.progress{transform:scaleX(0);transform-origin:left;animation:grow 1.2s .45s cubic-bezier(.2,.8,.2,1) forwards}
@keyframes grow{to{transform:scaleX(1)}}
.tw{animation:tw 3.6s ease-in-out infinite}
@keyframes tw{0%,100%{opacity:.15}50%{opacity:.85}}
@media (prefers-reduced-motion:reduce){*{animation:none!important;opacity:1!important;transform:none!important}}
</style>
<defs><linearGradient id="edge" x1="0" y1="0" x2="1" y2="1"><stop offset="0" stop-color="#34d399" stop-opacity=".55"/><stop offset=".5" stop-color="#1f2937"/><stop offset="1" stop-color="#818cf8" stop-opacity=".55"/></linearGradient></defs>
<rect x=".5" y=".5" width="984" height="387" rx="14" fill="#030712" stroke="url(#edge)"/>
<circle cx="667.0" cy="304.5" r="1.2" fill="#e5e7eb" opacity="0.20" class="tw" style="animation-delay:0.80s"/><circle cx="342.0" cy="205.3" r="1.2" fill="#e5e7eb" opacity="0.21"/><circle cx="257.2" cy="101.0" r="0.8" fill="#e5e7eb" opacity="0.54"/><circle cx="822.0" cy="300.0" r="0.8" fill="#e5e7eb" opacity="0.16"/><circle cx="608.3" cy="341.1" r="0.6" fill="#e5e7eb" opacity="0.20"/><circle cx="448.8" cy="336.0" r="0.5" fill="#e5e7eb" opacity="0.47"/><circle cx="408.2" cy="38.6" r="1.0" fill="#e5e7eb" opacity="0.45" class="tw" style="animation-delay:1.58s"/><circle cx="648.4" cy="116.0" r="1.2" fill="#e5e7eb" opacity="0.48"/><circle cx="780.1" cy="370.1" r="0.6" fill="#e5e7eb" opacity="0.46"/><circle cx="568.0" cy="41.8" r="0.6" fill="#e5e7eb" opacity="0.31"/><circle cx="136.5" cy="243.0" r="0.5" fill="#e5e7eb" opacity="0.37"/><circle cx="451.2" cy="371.3" r="1.0" fill="#e5e7eb" opacity="0.39"/><circle cx="512.4" cy="319.9" r="1.0" fill="#e5e7eb" opacity="0.30" class="tw" style="animation-delay:3.59s"/><circle cx="853.1" cy="345.5" r="0.6" fill="#e5e7eb" opacity="0.19"/><circle cx="459.0" cy="175.3" r="0.8" fill="#e5e7eb" opacity="0.52"/><circle cx="468.5" cy="174.3" r="0.8" fill="#e5e7eb" opacity="0.44"/><circle cx="454.1" cy="116.9" r="0.5" fill="#e5e7eb" opacity="0.18"/><circle cx="306.6" cy="374.4" r="1.0" fill="#e5e7eb" opacity="0.19"/><circle cx="65.5" cy="196.2" r="0.5" fill="#e5e7eb" opacity="0.22" class="tw" style="animation-delay:2.60s"/><circle cx="74.2" cy="49.0" r="1.0" fill="#e5e7eb" opacity="0.26"/><circle cx="460.0" cy="43.5" r="1.2" fill="#e5e7eb" opacity="0.34"/><circle cx="983.2" cy="314.6" r="1.0" fill="#e5e7eb" opacity="0.41"/><circle cx="624.4" cy="3.4" r="1.0" fill="#e5e7eb" opacity="0.40"/><circle cx="285.4" cy="247.2" r="0.5" fill="#e5e7eb" opacity="0.38"/><circle cx="580.0" cy="371.9" r="0.6" fill="#e5e7eb" opacity="0.26" class="tw" style="animation-delay:1.27s"/><circle cx="24.2" cy="109.0" r="0.6" fill="#e5e7eb" opacity="0.18"/><circle cx="289.5" cy="180.8" r="1.2" fill="#e5e7eb" opacity="0.20"/><circle cx="318.6" cy="198.9" r="0.8" fill="#e5e7eb" opacity="0.37"/><circle cx="705.9" cy="286.3" r="0.8" fill="#e5e7eb" opacity="0.41"/><circle cx="671.1" cy="110.8" r="1.2" fill="#e5e7eb" opacity="0.38"/><circle cx="813.6" cy="363.0" r="0.6" fill="#e5e7eb" opacity="0.21" class="tw" style="animation-delay:1.83s"/><circle cx="916.1" cy="199.0" r="0.5" fill="#e5e7eb" opacity="0.25"/><circle cx="459.8" cy="147.1" r="0.8" fill="#e5e7eb" opacity="0.28"/><circle cx="184.3" cy="333.7" r="0.8" fill="#e5e7eb" opacity="0.54"/><circle cx="93.2" cy="259.1" r="1.2" fill="#e5e7eb" opacity="0.33"/><circle cx="608.1" cy="338.2" r="0.5" fill="#e5e7eb" opacity="0.28"/><circle cx="361.6" cy="230.3" r="0.8" fill="#e5e7eb" opacity="0.17" class="tw" style="animation-delay:1.05s"/><circle cx="87.0" cy="87.9" r="0.5" fill="#e5e7eb" opacity="0.54"/><circle cx="163.1" cy="257.6" r="1.2" fill="#e5e7eb" opacity="0.19"/><circle cx="587.5" cy="35.3" r="0.5" fill="#e5e7eb" opacity="0.39"/><circle cx="45.9" cy="264.9" r="1.2" fill="#e5e7eb" opacity="0.28"/><circle cx="533.7" cy="211.6" r="0.5" fill="#e5e7eb" opacity="0.26"/><circle cx="146.2" cy="112.2" r="1.2" fill="#e5e7eb" opacity="0.49" class="tw" style="animation-delay:0.51s"/><circle cx="684.4" cy="120.5" r="1.0" fill="#e5e7eb" opacity="0.38"/><circle cx="348.5" cy="304.7" r="0.6" fill="#e5e7eb" opacity="0.25"/><circle cx="341.2" cy="359.0" r="0.6" fill="#e5e7eb" opacity="0.37"/>
<rect x="1" y="1" width="983" height="48" rx="13" fill="#0a0f1c"/>
<rect x="1" y="34" width="983" height="15" fill="#0a0f1c"/>
<line x1="1" y1="49.5" x2="984" y2="49.5" stroke="#1f2937"/>
<circle cx="24" cy="24" r="5.5" fill="#f87171" opacity=".85"/><circle cx="43" cy="24" r="5.5" fill="#fbbf24" opacity=".85"/><circle cx="62" cy="24" r="5.5" fill="#34d399" opacity=".85"/>
<text x="91" y="28" class="label" fill="#e5e7eb">MISSION CONTROL</text>
<text x="963" y="28" class="sub" text-anchor="end">portfolio.snapshot()</text>
<g class="panel" style="animation-delay:0.08s">
<rect x="0.5" y="62.5" width="315" height="255" rx="13" fill="#0a0f1c" stroke="#1f2937"/>
<text x="20" y="93" class="idx">01</text>
<text x="54" y="93" class="label">WHAT I BUILD</text>
<line x1="20" y1="106" x2="296" y2="106" stroke="#1f2937"/>
<rect x="21" y="94" width="4" height="32" rx="2" fill="#34d399"/><circle cx="42" cy="110" r="11" fill="#34d399" fill-opacity=".12" stroke="#34d399" stroke-opacity=".45"/><circle cx="42" cy="110" r="3.5" fill="#34d399"/><text x="62" y="107" class="title">Backend &amp; APIs</text><text x="62" y="124" class="sub">REST · validation · webhooks</text><rect x="21" y="144" width="4" height="32" rx="2" fill="#38bdf8"/><circle cx="42" cy="160" r="11" fill="#38bdf8" fill-opacity=".12" stroke="#38bdf8" stroke-opacity=".45"/><circle cx="42" cy="160" r="3.5" fill="#38bdf8"/><text x="62" y="157" class="title">Data systems</text><text x="62" y="174" class="sub">PostgreSQL · SQL · RLS</text><rect x="21" y="194" width="4" height="32" rx="2" fill="#818cf8"/><circle cx="42" cy="210" r="11" fill="#818cf8" fill-opacity=".12" stroke="#818cf8" stroke-opacity=".45"/><circle cx="42" cy="210" r="3.5" fill="#818cf8"/><text x="62" y="207" class="title">Security &amp; operations</text><text x="62" y="224" class="sub">RBAC · SSO · observability</text><text x="21" y="278" class="copy">Backend-first products, connected</text><text x="21" y="297" class="copy">to useful interfaces and reliable infra.</text></g>
<g class="panel" style="animation-delay:0.20s">
<rect x="330.5" y="62.5" width="315" height="255" rx="13" fill="#0a0f1c" stroke="#1f2937"/>
<text x="350" y="93" class="idx">02</text>
<text x="384" y="93" class="label">SIGNAL</text>
<line x1="350" y1="106" x2="626" y2="106" stroke="#1f2937"/>
<rect x="350" y="93" width="137" height="76" rx="10" fill="#030712" stroke="#34d399" stroke-opacity=".28"/><text x="364" y="130" class="metric" fill="#34d399">3</text><text x="364" y="152" class="micro">END-TO-END</text><rect x="501" y="93" width="137" height="76" rx="10" fill="#030712" stroke="#38bdf8" stroke-opacity=".28"/><text x="515" y="130" class="metric" fill="#38bdf8">15+</text><text x="515" y="152" class="micro">SERVICES</text><rect x="350" y="184" width="137" height="76" rx="10" fill="#030712" stroke="#818cf8" stroke-opacity=".28"/><text x="364" y="221" class="metric" fill="#818cf8">6.36M</text><text x="364" y="243" class="micro">ROWS ANALYZED</text><rect x="501" y="184" width="137" height="76" rx="10" fill="#030712" stroke="#fbbf24" stroke-opacity=".28"/><text x="515" y="221" class="metric" fill="#fbbf24">94/100</text><text x="515" y="243" class="micro">ACADEMIC AVG</text><text x="350" y="282" class="copy">From product delivery to ML research</text><text x="350" y="301" class="copy">and a self-hosted production lab.</text></g>
<g class="panel" style="animation-delay:0.32s">
<rect x="660.5" y="62.5" width="324" height="255" rx="13" fill="#0a0f1c" stroke="#1f2937"/>
<text x="680" y="93" class="idx">03</text>
<text x="714" y="93" class="label">CURRENT MISSION</text>
<line x1="680" y1="106" x2="965" y2="106" stroke="#1f2937"/>
<circle cx="687" cy="101" r="5" fill="#34d399" class="pulse"/><text x="701" y="106" class="title">Available</text><text x="687" y="127" class="sub">internships · junior roles</text><text x="687" y="164" class="micro">LEARNING NOW</text><text x="687" y="187" class="title">Google Cloud Engineering</text><rect x="687" y="201" width="238" height="7" rx="3.5" fill="#1f2937"/><rect x="687" y="201" width="52.4" height="7" rx="3.5" fill="#38bdf8" class="progress"/><text x="925" y="223" class="sub" text-anchor="end">22% · Career Launchpad LatAm</text><text x="687" y="254" class="micro">CERTIFIED</text><text x="687" y="277" class="title">Google AI Professional</text><text x="687" y="297" class="sub">7-course certificate · 2026</text></g>
<text x="21" y="357" class="micro">SYSTEM FLOW</text>
<rect x="116" y="339" width="96" height="28" rx="14" fill="#38bdf8" fill-opacity=".1" stroke="#38bdf8" stroke-opacity=".45"/><circle cx="130" cy="353" r="3" fill="#38bdf8"/><text x="142" y="357" class="flow">CLIENT</text><text x="225" y="358" class="arrow">→</text><rect x="249" y="339" width="96" height="28" rx="14" fill="#34d399" fill-opacity=".1" stroke="#34d399" stroke-opacity=".45"/><circle cx="263" cy="353" r="3" fill="#34d399"/><text x="275" y="357" class="flow">API</text><text x="358" y="358" class="arrow">→</text><rect x="382" y="339" width="110" height="28" rx="14" fill="#818cf8" fill-opacity=".1" stroke="#818cf8" stroke-opacity=".45"/><circle cx="396" cy="353" r="3" fill="#818cf8"/><text x="408" y="357" class="flow">POSTGRESQL</text><text x="505" y="358" class="arrow">→</text><rect x="529" y="339" width="96" height="28" rx="14" fill="#fbbf24" fill-opacity=".1" stroke="#fbbf24" stroke-opacity=".45"/><circle cx="543" cy="353" r="3" fill="#fbbf24"/><text x="555" y="357" class="flow">DOCKER</text><text x="638" y="358" class="arrow">→</text><rect x="662" y="339" width="134" height="28" rx="14" fill="#f87171" fill-opacity=".1" stroke="#f87171" stroke-opacity=".45"/><circle cx="676" cy="353" r="3" fill="#f87171"/><text x="688" y="357" class="flow">OBSERVABILITY</text>
</svg>
